<svg xmlns="http://www.w3.org/2000/svg" width="16.2" height="17" viewBox="0 0 16.2 17">
  <path id="Path_104" data-name="Path 104" d="M267.5,10a2,2,0,1,0-2-2A2.006,2.006,0,0,0,267.5,10Zm-4.1-6.4a5.64,5.64,0,0,1,2.4-1.3l.8-2.3h2l.8,2.3a6.983,6.983,0,0,1,2.4,1.3l2.4-.5,1,1.8-1.6,1.8a5.7,5.7,0,0,1,.1,1.3c0,.4-.1.9-.1,1.3l1.6,1.8-1,1.8-2.4-.5a5.64,5.64,0,0,1-2.4,1.3l-.8,2.3h-2l-.8-2.3a6.983,6.983,0,0,1-2.4-1.3l-2.4.5-1-1.8,1.6-1.8a5.7,5.7,0,0,1-.1-1.3c0-.4.1-.9.1-1.3L260,4.9l1-1.8Z" transform="translate(-259.5 0.5)" fill="none" stroke="#fff" stroke-linecap="round" stroke-linejoin="round" stroke-width="1" fill-rule="evenodd"/>
</svg>
