<svg xmlns="http://www.w3.org/2000/svg" width="19.575" height="19.575" viewBox="0 0 19.575 19.575">
  <path id="spotify" d="M9.788,0a9.788,9.788,0,1,0,9.788,9.788A9.788,9.788,0,0,0,9.788,0Zm4.26,14.2a.669.669,0,0,1-.916.24,9.852,9.852,0,0,0-5.186-1.151,12.865,12.865,0,0,0-2.69.355A.669.669,0,0,1,4.9,12.358a13.936,13.936,0,0,1,2.967-.4,13.066,13.066,0,0,1,2.858.207,9.646,9.646,0,0,1,3.082,1.125A.669.669,0,0,1,14.047,14.2Zm1.244-2.584a.792.792,0,0,1-1.085.284,11.671,11.671,0,0,0-6.143-1.363,15.242,15.242,0,0,0-3.186.421.793.793,0,0,1-.42-1.529,16.5,16.5,0,0,1,3.514-.475,15.48,15.48,0,0,1,3.385.245,11.428,11.428,0,0,1,3.65,1.332A.793.793,0,0,1,15.292,11.62Zm.765-2.35a.968.968,0,0,1-.49-.133C10.614,6.243,4.189,7.964,4.124,7.981a.972.972,0,0,1-.517-1.875,20.242,20.242,0,0,1,4.31-.583,18.992,18.992,0,0,1,4.153.3,14.016,14.016,0,0,1,4.477,1.634.973.973,0,0,1-.492,1.812Z" fill="#1ed760"/>
</svg>
